<?xml version="1.0" standalone="no"?>
<!DOCTYPE svg PUBLIC "-//W3C//DTD SVG 20010904//EN"
 "http://www.w3.org/TR/2001/REC-SVG-20010904/DTD/svg10.dtd">
<svg version="1.0" xmlns="http://www.w3.org/2000/svg"
 width="1280.000000pt" height="1261.000000pt" viewBox="0 0 1280.000000 1261.000000"
 preserveAspectRatio="xMidYMid meet">
<metadata>
Created by potrace 1.15, written by Peter Selinger 2001-2017
</metadata>
<g transform="translate(0.000000,1261.000000) scale(0.100000,-0.100000)"
fill="#000000" stroke="none">
<path d="M4765 12550 c-77 -33 -153 -66 -170 -75 -16 -8 -169 -46 -340 -84
-1154 -258 -2131 -551 -2874 -860 l-94 -39 -129 -234 c-164 -295 -396 -764
-487 -978 -150 -357 -225 -602 -302 -984 -86 -429 -157 -722 -179 -736 -8 -5
-192 -432 -188 -435 2 -1 66 -39 143 -85 669 -397 1298 -692 1929 -905 275
-93 537 -168 547 -158 18 18 157 349 150 356 -5 5 11 38 35 74 23 35 55 94 70
129 15 35 29 62 31 60 2 -2 -3 -44 -11 -92 -46 -264 -100 -740 -130 -1139 -45
-585 -56 -1044 -56 -2275 0 -1583 -23 -2186 -105 -2815 -35 -267 -54 -376
-121 -696 -6 -24 -1 -27 113 -71 676 -261 1579 -436 2522 -489 224 -12 1000
-6 1156 10 51 5 144 3 255 -6 96 -7 312 -16 480 -19 1066 -22 2271 160 3098
467 75 28 152 56 170 62 17 5 32 15 32 21 0 6 -16 87 -35 179 -55 269 -101
595 -129 912 -48 537 -57 868 -61 2275 -5 1574 -18 2026 -80 2700 -29 311 -83
739 -121 962 -3 21 8 3 30 -47 20 -44 58 -113 85 -152 32 -47 44 -73 35 -73
-8 0 -14 -2 -14 -5 0 -9 151 -350 158 -357 4 -4 97 19 207 52 764 226 1426
519 2217 982 103 60 190 113 192 116 4 9 -172 425 -183 432 -24 14 -101 323
-175 695 -103 519 -200 813 -441 1328 -128 273 -468 912 -498 934 -26 20 -400
166 -687 267 -630 224 -1419 442 -2314 641 -160 36 -302 64 -316 63 -14 -1
-88 29 -164 65 -76 37 -142 67 -147 67 -4 0 -36 -46 -70 -102 -460 -749 -800
-1095 -1168 -1187 -101 -25 -252 -28 -354 -6 -382 81 -810 473 -1262 1156 -58
87 -107 159 -108 159 -1 -1 -65 -27 -142 -60z"/>
</g>
</svg>
